<svg width="124" height="35" viewBox="0 0 124 35" fill="none" xmlns="http://www.w3.org/2000/svg">
<path d="M49.9159 18.2299H4.68457V1.96375H49.9159V18.2299Z" fill="#680707"/>
<path d="M9.54277 11.2959H13.1689L11.3645 5.8565L9.54277 11.2959ZM9.17842 12.2344L8.55383 13.9027C8.48443 14.146 8.44973 14.3545 8.44973 14.5457C8.44973 15.2061 8.84878 15.5362 9.66422 15.571V16.1619H6.03809V15.5884C6.40243 15.571 6.76678 15.1018 7.16583 14.1807L11.139 3.68421H12.2841L16.2745 14.1807C16.6562 15.1018 17.0379 15.571 17.4023 15.5884V16.1619H12.8913V15.5884C13.7588 15.5884 14.1926 15.2408 14.1926 14.5631C14.1926 14.3893 14.1579 14.1807 14.0885 13.9201L13.5333 12.2344H9.17842ZM25.8517 3.66683V6.96872H25.0536C25.0536 5.40467 24.5331 4.60526 23.4748 4.60526H22.1735V14.5631C22.1735 15.2234 22.6073 15.5536 23.4574 15.571V16.1619H19.0679V15.5884C19.918 15.571 20.3518 15.2408 20.3518 14.5804V4.62264H19.0505C17.9922 4.62264 17.4717 5.40467 17.4717 6.9861H16.6736V3.68421H25.8517V3.66683ZM38.3957 9.99255C38.3957 11.8694 37.9273 13.3987 36.973 14.5457C36.0535 15.71 34.6481 16.2835 32.7743 16.2835C30.8311 16.2835 29.3738 15.71 28.4195 14.5457C27.4653 13.3987 26.9968 11.8694 26.9968 9.99255C26.9968 8.0288 27.4653 6.46475 28.4022 5.3004C29.3564 4.13605 30.7444 3.56256 32.6008 3.56256C34.5787 3.56256 36.0361 4.13605 36.9904 5.3004C37.9273 6.46475 38.3957 8.0288 38.3957 9.99255ZM32.7743 15.5015C33.9021 15.5015 34.7696 15.0149 35.3768 14.0591C36.0014 13.0859 36.2964 11.7304 36.2964 9.97517C36.2617 8.23734 35.9147 6.88183 35.2554 5.89126C34.5787 4.90069 33.6939 4.4141 32.6008 4.4141C31.4904 4.4141 30.6229 4.90069 30.0157 5.8565C29.3911 6.82969 29.0788 8.20258 29.0788 9.97517C29.1135 11.6783 29.4778 13.0338 30.1545 14.007C30.8485 15.0149 31.716 15.5015 32.7743 15.5015ZM41.6228 8.98461C40.8074 8.37636 40.3563 7.61172 40.2869 6.69066C40.2869 5.83913 40.6339 5.09186 41.3279 4.48361C42.0045 3.87537 42.9761 3.56256 44.26 3.56256C45.5265 3.56256 46.5502 3.92751 47.3483 4.6574V6.9861H46.7584C46.5155 6.03029 46.2032 5.36991 45.8041 5.00496C45.3877 4.64002 44.9019 4.46624 44.3467 4.46624C43.618 4.46624 43.0975 4.6574 42.7679 5.00496C42.4209 5.36991 42.2648 5.83913 42.2648 6.36048C42.2994 6.95134 42.924 7.55958 44.1385 8.21996C45.301 8.84558 46.1858 9.40169 46.8278 9.8709C47.782 10.6182 48.2852 11.5914 48.3719 12.7905C48.3719 13.8158 48.0076 14.6673 47.2789 15.3277C46.5328 15.9881 45.4224 16.3183 43.965 16.3183C42.2648 16.3183 40.9635 15.8317 40.096 14.8585V11.7304H40.9809C41.2064 13.3118 41.5534 14.3198 42.0566 14.7716C42.5424 15.2234 43.1323 15.432 43.8609 15.432C44.7284 15.432 45.3704 15.2408 45.7694 14.8932C46.1511 14.5457 46.3593 13.9722 46.3767 13.1728C46.3246 12.1822 45.648 11.3481 44.3641 10.6182C43.0802 9.92304 42.178 9.38431 41.6228 8.98461Z" fill="white"/>
<path d="M53.3336 9.99255C53.3336 11.6261 53.6806 12.9295 54.3746 13.9201C55.0686 14.8932 55.9361 15.3798 56.9944 15.3798C58.1222 15.3625 59.007 15.0497 59.6663 14.3893C60.3256 13.7289 60.7073 13.1033 60.8288 12.495H61.3666C61.1931 13.4161 60.7073 14.285 59.9439 15.0844C59.1979 15.8491 58.0701 16.2488 56.5954 16.2835C54.9992 16.2835 53.6806 15.7448 52.6743 14.65C51.6333 13.503 51.1128 11.9389 51.1128 9.99255C51.1128 8.01142 51.6506 6.44737 52.7437 5.31777C53.8367 4.15343 55.1727 3.56256 56.7689 3.56256C57.7405 3.56256 58.4865 3.73634 59.007 4.08391C59.2152 4.22294 59.3887 4.29245 59.5102 4.29245C59.7357 4.29245 59.8398 4.10129 59.8398 3.71897H60.6206V7.82026H59.8745C59.7357 6.77756 59.4581 5.9434 59.0417 5.31777C58.6253 4.70953 57.9313 4.39672 56.9597 4.39672C56.0055 4.39672 55.1553 4.91807 54.4266 5.97815C53.6979 7.00347 53.3336 8.34161 53.3336 9.99255ZM65.1142 11.2959H68.7403L66.9359 5.83912L65.1142 11.2959ZM64.7498 12.2344L64.1426 13.9027C64.0732 14.146 64.0385 14.3545 64.0385 14.5457C64.0385 15.2061 64.4375 15.5362 65.253 15.571V16.1619H61.6269V15.5884C61.9912 15.571 62.3556 15.1018 62.7546 14.1807L66.7277 3.68421H67.8728L71.8633 14.1807C72.245 15.1018 72.6267 15.571 72.9911 15.5884V16.1619H68.4974V15.5884C69.3649 15.5884 69.7987 15.2408 69.7987 14.5631C69.7987 14.3893 69.764 14.1807 69.6946 13.9201L69.1567 12.2517H64.7498V12.2344ZM76.409 10.6008V13.7115C76.409 14.928 76.8601 15.5536 77.7623 15.571V16.1619H73.3034V15.5884C74.1709 15.571 74.6046 15.2234 74.6046 14.5804V5.24826C74.6046 4.60526 74.1709 4.27507 73.3034 4.24032V3.66683H77.4847C80.9026 3.68421 82.6029 4.83118 82.6029 7.12512C82.5856 9.41907 80.8853 10.566 77.4847 10.5834H76.409V10.6008ZM76.409 4.43148V9.10626C76.409 9.61023 76.6866 9.85352 77.2591 9.85352H77.6061C79.5493 9.78401 80.5209 8.88034 80.5209 7.12512C80.5209 5.36991 79.5493 4.46624 77.6061 4.4141H76.409V4.43148ZM86.3679 14.5804C86.3679 15.2234 86.819 15.5536 87.7212 15.5884V16.1619H83.2622V15.5884C84.1297 15.571 84.5635 15.2234 84.5635 14.5804V5.24826C84.5635 4.60526 84.1297 4.27507 83.2622 4.24032V3.66683H87.7212V4.24032C86.819 4.2577 86.3679 4.60526 86.3679 5.24826V14.5804ZM97.6627 3.66683V6.96872H96.8646C96.8646 5.40467 96.3441 4.60526 95.2857 4.60526H93.9845V14.5631C93.9845 15.2234 94.4182 15.5536 95.2684 15.571V16.1619H90.8788V15.5884C91.729 15.571 92.1627 15.2408 92.1627 14.5804V4.62264H90.8615C89.8032 4.62264 89.2826 5.40467 89.2826 6.9861H88.4846V3.68421H97.6627V3.66683ZM101.358 11.2959H104.984L103.18 5.83912L101.358 11.2959ZM100.977 12.2344L100.369 13.9027C100.3 14.146 100.265 14.3545 100.265 14.5457C100.265 15.2061 100.664 15.5362 101.48 15.571V16.1619H97.8535V15.5884C98.2179 15.571 98.5822 15.1018 98.9813 14.1807L102.954 3.68421H104.1L108.09 14.1807C108.472 15.1018 108.853 15.571 109.218 15.5884V16.1619H104.724V15.5884C105.592 15.5884 106.025 15.2408 106.025 14.5631C106.025 14.3893 105.991 14.1807 105.921 13.9201L105.383 12.2517H100.977V12.2344ZM114.978 15.2061C116.574 15.2061 117.355 14.4414 117.355 12.9121H118.17V16.1619H109.808V15.5884C110.658 15.571 111.092 15.2408 111.092 14.5804V5.24826C111.092 4.58788 110.658 4.2577 109.808 4.24032V3.66683H114.267V4.24032C113.347 4.2577 112.896 4.58788 112.896 5.24826V14.5109C112.896 14.9628 113.243 15.1887 113.954 15.1887H114.978V15.2061Z" fill="#680707"/>
<path d="M119.316 18.2299H50.6445V17.3088H119.316V18.2299Z" fill="black"/>
<path d="M29.3908 24.5035C29.3908 24.6599 29.3561 24.8163 29.2867 24.9379C29.2173 25.0596 29.1305 25.1812 29.0264 25.2681C28.905 25.355 28.7835 25.4245 28.6274 25.4767C28.4712 25.5288 28.3151 25.5462 28.1242 25.5462C28.0028 25.5462 27.8813 25.5288 27.7772 25.5114C27.6731 25.494 27.569 25.4593 27.4996 25.4419C27.4129 25.4072 27.3435 25.3898 27.2914 25.355C27.2394 25.3203 27.1873 25.3029 27.17 25.2681C27.1526 25.2507 27.1353 25.216 27.1179 25.1812C27.1006 25.1465 27.1006 25.1117 27.1006 25.0422C27.1006 25.0075 27.1006 24.9727 27.1006 24.9379C27.1006 24.9206 27.1179 24.8858 27.1179 24.8684C27.1179 24.851 27.1353 24.8337 27.1526 24.8337C27.17 24.8337 27.17 24.8163 27.1873 24.8163C27.222 24.8163 27.2567 24.8337 27.3088 24.8684C27.3608 24.9032 27.4129 24.9379 27.4996 24.9727C27.569 25.0075 27.6731 25.0422 27.7772 25.077C27.8813 25.1117 28.0028 25.1291 28.1589 25.1291C28.263 25.1291 28.3671 25.1117 28.4539 25.0943C28.5406 25.0596 28.6274 25.0248 28.6794 24.9727C28.7488 24.9206 28.8009 24.8684 28.8356 24.7815C28.8703 24.712 28.8876 24.6251 28.8876 24.5382C28.8876 24.434 28.8703 24.3471 28.8182 24.2776C28.7662 24.208 28.7141 24.1385 28.6274 24.0864C28.5406 24.0343 28.4539 23.9821 28.3671 23.9474C28.263 23.8952 28.1589 23.8605 28.0548 23.8083C27.9507 23.7562 27.8466 23.7041 27.7425 23.6519C27.6384 23.5998 27.5517 23.5303 27.4823 23.4608C27.3955 23.3913 27.3435 23.287 27.2914 23.2001C27.2394 23.0958 27.222 22.9742 27.222 22.8352C27.222 22.6788 27.2567 22.5571 27.3088 22.4355C27.3608 22.3138 27.4476 22.2269 27.5517 22.14C27.6558 22.0705 27.7772 22.001 27.916 21.9662C28.0548 21.9315 28.211 21.8967 28.3671 21.8967C28.4539 21.8967 28.5233 21.8967 28.61 21.9141C28.6968 21.9315 28.7662 21.9489 28.8529 21.9662C28.9223 21.9836 28.9917 22.0184 29.0438 22.0358C29.0958 22.0705 29.1305 22.0879 29.1479 22.1053C29.1652 22.1226 29.1826 22.14 29.1826 22.14C29.1826 22.1574 29.1999 22.1574 29.1999 22.1748C29.1999 22.1922 29.1999 22.2095 29.2173 22.2269C29.2173 22.2443 29.2173 22.2791 29.2173 22.3138C29.2173 22.3486 29.2173 22.3833 29.2173 22.4007C29.2173 22.4181 29.2173 22.4528 29.1999 22.4702C29.1999 22.4876 29.1826 22.505 29.1826 22.505C29.1652 22.505 29.1652 22.5224 29.1479 22.5224C29.1305 22.5224 29.0958 22.505 29.0438 22.4876C28.9917 22.4702 28.9397 22.4355 28.8703 22.4007C28.8009 22.3659 28.7315 22.3486 28.6447 22.3138C28.558 22.2791 28.4539 22.2791 28.3498 22.2791C28.2457 22.2791 28.1589 22.2964 28.0722 22.3138C28.0028 22.3486 27.9334 22.3833 27.8813 22.4181C27.8293 22.4702 27.7946 22.505 27.7772 22.5745C27.7599 22.6266 27.7425 22.6961 27.7425 22.7656C27.7425 22.8699 27.7599 22.9394 27.8119 23.0263C27.864 23.0958 27.916 23.1653 28.0028 23.2175C28.0895 23.2696 28.1763 23.3218 28.2804 23.3739C28.3845 23.426 28.4886 23.4608 28.5927 23.5129C28.6968 23.5651 28.8009 23.6172 28.905 23.6693C29.0091 23.7215 29.0958 23.791 29.1826 23.8605C29.2693 23.93 29.3214 24.0169 29.3734 24.1212C29.3561 24.2428 29.3908 24.3645 29.3908 24.5035ZM32.8261 25.3029C32.8261 25.3376 32.8261 25.3724 32.8261 25.3898C32.8261 25.4072 32.8087 25.4419 32.8087 25.4593C32.7914 25.4767 32.7914 25.494 32.774 25.494C32.7567 25.494 32.7393 25.5114 32.7393 25.5114H30.9523C30.9002 25.5114 30.8655 25.494 30.8308 25.4767C30.7961 25.4419 30.7788 25.4072 30.7788 25.3203V22.1748C30.7788 22.1053 30.7961 22.0531 30.8308 22.0184C30.8655 21.9836 30.9176 21.9836 30.9523 21.9836H32.722C32.7393 21.9836 32.7567 21.9836 32.7567 22.001C32.774 22.001 32.774 22.0184 32.7914 22.0358C32.7914 22.0531 32.8087 22.0705 32.8087 22.1053C32.8087 22.1226 32.8087 22.1574 32.8087 22.1922C32.8087 22.2269 32.8087 22.2617 32.8087 22.2791C32.8087 22.2964 32.7914 22.3312 32.7914 22.3312C32.7914 22.3486 32.774 22.3659 32.7567 22.3659C32.7393 22.3659 32.722 22.3833 32.722 22.3833H31.2646V23.4955H32.5138C32.5311 23.4955 32.5485 23.4955 32.5485 23.5129C32.5658 23.5129 32.5658 23.5303 32.5832 23.5477C32.6005 23.5651 32.6005 23.5824 32.6005 23.5998C32.6005 23.6346 32.6005 23.6519 32.6005 23.6867C32.6005 23.7215 32.6005 23.7562 32.6005 23.7736C32.6005 23.791 32.5832 23.8083 32.5832 23.8257C32.5658 23.8431 32.5658 23.8431 32.5485 23.8605C32.5311 23.8605 32.5138 23.8779 32.5138 23.8779H31.2646V25.1465H32.7393C32.7567 25.1465 32.774 25.1465 32.774 25.1639C32.7914 25.1639 32.7914 25.1812 32.8087 25.1986C32.8261 25.216 32.8261 25.2334 32.8261 25.2508C32.8261 25.2334 32.8261 25.2681 32.8261 25.3029ZM36.7645 25.4245C36.7645 25.4419 36.7645 25.4593 36.7472 25.4593C36.7472 25.4767 36.7298 25.4767 36.7125 25.494C36.6951 25.494 36.6604 25.5114 36.6257 25.5114C36.591 25.5114 36.539 25.5114 36.4869 25.5114C36.4349 25.5114 36.4002 25.5114 36.3655 25.5114C36.3308 25.5114 36.3134 25.494 36.2961 25.494C36.2787 25.494 36.2614 25.4767 36.244 25.4593C36.2267 25.4419 36.2267 25.4245 36.2093 25.4072L35.8623 24.573C35.8276 24.4861 35.7756 24.3992 35.7409 24.3123C35.7062 24.2254 35.6541 24.1733 35.5847 24.1038C35.5327 24.0516 35.4633 23.9995 35.3765 23.9648C35.2898 23.93 35.203 23.9126 35.0816 23.9126H34.7519V25.4245C34.7519 25.4419 34.7519 25.4593 34.7346 25.4593C34.7172 25.4767 34.7172 25.4767 34.6999 25.4767C34.6825 25.4767 34.6652 25.494 34.6305 25.494C34.5958 25.494 34.5611 25.494 34.509 25.494C34.457 25.494 34.4223 25.494 34.3876 25.494C34.3529 25.494 34.3355 25.4767 34.3182 25.4767C34.3008 25.4767 34.2835 25.4593 34.2835 25.4593C34.2835 25.4419 34.2661 25.4419 34.2661 25.4245V22.1574C34.2661 22.0879 34.2835 22.0358 34.3182 22.001C34.3529 21.9662 34.4049 21.9662 34.4396 21.9662H35.2377C35.3245 21.9662 35.4112 21.9662 35.4806 21.9662C35.55 21.9662 35.6021 21.9836 35.6541 21.9836C35.7929 22.001 35.9317 22.0531 36.0358 22.0879C36.1399 22.14 36.244 22.2095 36.3134 22.2791C36.3828 22.3659 36.4522 22.4528 36.4869 22.5397C36.5216 22.644 36.539 22.7483 36.539 22.8699C36.539 22.9916 36.5216 23.0958 36.4869 23.1827C36.4522 23.2696 36.4002 23.3565 36.3481 23.426C36.2787 23.4955 36.2093 23.565 36.1226 23.6172C36.0358 23.6693 35.9317 23.7215 35.8276 23.7562C35.897 23.791 35.9491 23.8083 36.0011 23.8605C36.0532 23.8952 36.1052 23.9474 36.1399 23.9995C36.1746 24.0516 36.2267 24.1212 36.2614 24.1907C36.2961 24.2602 36.3308 24.3471 36.3828 24.434L36.7125 25.216C36.7472 25.2855 36.7645 25.3203 36.7645 25.355C36.7645 25.3898 36.7645 25.4072 36.7645 25.4245ZM36.0185 22.9394C36.0185 22.8004 35.9838 22.6788 35.9144 22.5919C35.845 22.505 35.7409 22.4355 35.5847 22.3833C35.5327 22.3659 35.4806 22.3659 35.4286 22.3486C35.3765 22.3486 35.2898 22.3486 35.1857 22.3486H34.7693V23.5303H35.2551C35.3939 23.5303 35.498 23.5129 35.5847 23.4782C35.6715 23.4434 35.7582 23.4086 35.8276 23.3565C35.897 23.3044 35.9317 23.2349 35.9664 23.1653C36.0185 23.1132 36.0185 23.0263 36.0185 22.9394ZM39.5752 25.4072C39.5752 25.4245 39.5578 25.4419 39.5405 25.4593C39.5231 25.4767 39.5058 25.4767 39.4884 25.494C39.4711 25.494 39.4364 25.5114 39.4017 25.5114C39.367 25.5114 39.3149 25.5114 39.2629 25.5114C39.2282 25.5114 39.1761 25.5114 39.1588 25.5114C39.1241 25.5114 39.1067 25.5114 39.072 25.5114C39.0547 25.5114 39.0373 25.5114 39.02 25.494C39.0026 25.494 38.9853 25.4767 38.9853 25.4767C38.9679 25.4767 38.9679 25.4593 38.9506 25.4593C38.9506 25.4419 38.9332 25.4419 38.9332 25.4245L37.7187 22.14C37.7014 22.1053 37.7014 22.0705 37.7014 22.0358C37.7014 22.0184 37.7014 22.001 37.7187 21.9836C37.7361 21.9662 37.7708 21.9662 37.8055 21.9662C37.8402 21.9662 37.8922 21.9662 37.9616 21.9662C38.0137 21.9662 38.0657 21.9662 38.0831 21.9662C38.1178 21.9662 38.1351 21.9662 38.1525 21.9836C38.1698 21.9836 38.1872 22.001 38.1872 22.0184C38.2045 22.0358 38.2045 22.0531 38.2045 22.0705L39.2629 25.0422L40.3039 22.0705C40.3039 22.0531 40.3212 22.0358 40.3212 22.0184C40.3212 22.001 40.3386 22.001 40.3559 21.9836C40.3733 21.9836 40.408 21.9662 40.4427 21.9662C40.4774 21.9662 40.5294 21.9662 40.5815 21.9662C40.6335 21.9662 40.6856 21.9662 40.7203 21.9662C40.755 21.9662 40.7723 21.9836 40.7897 22.001C40.807 22.0184 40.807 22.0358 40.807 22.0531C40.807 22.0705 40.7897 22.1053 40.7723 22.1574L39.5752 25.4072ZM42.5594 25.4245C42.5594 25.4419 42.5594 25.4593 42.542 25.4593C42.542 25.4767 42.5247 25.4767 42.5073 25.4767C42.49 25.4767 42.4553 25.494 42.4379 25.494C42.4032 25.494 42.3685 25.494 42.3165 25.494C42.2644 25.494 42.2297 25.494 42.195 25.494C42.1603 25.494 42.143 25.4767 42.1256 25.4767C42.1083 25.4767 42.0909 25.4593 42.0909 25.4593C42.0909 25.4419 42.0736 25.4419 42.0736 25.4245V22.0358C42.0736 22.0184 42.0736 22.001 42.0909 22.001C42.1083 21.9836 42.1083 21.9836 42.1256 21.9662C42.143 21.9662 42.1777 21.9489 42.195 21.9489C42.2297 21.9489 42.2644 21.9489 42.3165 21.9489C42.3685 21.9489 42.4032 21.9489 42.4379 21.9489C42.4726 21.9489 42.49 21.9662 42.5073 21.9662C42.5247 21.9662 42.542 21.9836 42.542 22.001C42.542 22.0184 42.5594 22.0184 42.5594 22.0358V25.4245ZM45.8385 25.7026C45.8732 25.7895 45.9079 25.859 45.9253 25.9111C45.9426 25.9633 45.96 26.0154 45.96 26.0675C45.96 26.137 45.9426 26.2066 45.9253 26.2587C45.8906 26.3108 45.8559 26.363 45.8038 26.3977C45.7518 26.4325 45.6997 26.4672 45.6303 26.4846C45.5609 26.502 45.4915 26.5194 45.4048 26.5194C45.3354 26.5194 45.266 26.5194 45.2139 26.502C45.1619 26.502 45.1098 26.4846 45.0578 26.4672C45.0057 26.4499 44.9884 26.4499 44.971 26.4499C44.9537 26.4499 44.9363 26.4325 44.9363 26.4151C44.9363 26.3977 44.919 26.3977 44.919 26.3803C44.919 26.363 44.919 26.3456 44.919 26.3108C44.919 26.2587 44.919 26.2239 44.9363 26.1892C44.9537 26.1718 44.971 26.1544 45.0057 26.1544H45.3527C45.4221 26.1544 45.4568 26.137 45.4915 26.1197C45.5262 26.1023 45.5436 26.0502 45.5436 26.0154C45.5436 25.998 45.5436 25.9633 45.5262 25.9285C45.5089 25.8937 45.4915 25.859 45.4742 25.8242L45.3354 25.5462C45.1619 25.5288 44.9884 25.4767 44.8322 25.4072C44.6761 25.3376 44.5373 25.2334 44.3985 25.0943C44.277 24.9553 44.1729 24.7815 44.0862 24.5556C44.0168 24.3297 43.9821 24.0864 43.9821 23.791C43.9821 23.4955 44.0168 23.2349 44.1035 23.0089C44.1903 22.783 44.2944 22.5919 44.4332 22.4355C44.572 22.2791 44.7455 22.1574 44.9537 22.0705C45.1619 21.9836 45.3701 21.9489 45.613 21.9489C45.7171 21.9489 45.8212 21.9662 45.9253 21.9836C46.0294 22.001 46.1161 22.0184 46.2029 22.0531C46.2896 22.0879 46.359 22.1226 46.4284 22.1574C46.4978 22.1922 46.5499 22.2269 46.5672 22.2443C46.6019 22.2617 46.6019 22.2791 46.6193 22.2964C46.6193 22.3138 46.6366 22.3312 46.6366 22.3486C46.6366 22.3659 46.654 22.3833 46.654 22.4181C46.654 22.4355 46.654 22.4702 46.654 22.505C46.654 22.5397 46.654 22.5745 46.654 22.5919C46.654 22.6092 46.6366 22.644 46.6366 22.6614C46.6366 22.6788 46.6193 22.6961 46.6019 22.6961C46.5846 22.6961 46.5846 22.7135 46.5672 22.7135C46.5325 22.7135 46.4978 22.6961 46.4631 22.6614C46.4111 22.6266 46.359 22.5919 46.2723 22.5397C46.2029 22.505 46.0988 22.4528 45.9947 22.4181C45.8906 22.3833 45.7518 22.3659 45.613 22.3659C45.4395 22.3659 45.3007 22.4007 45.1619 22.4528C45.0231 22.5223 44.919 22.6092 44.8149 22.7309C44.7108 22.8525 44.6414 23.0089 44.5893 23.1827C44.5373 23.3565 44.5026 23.565 44.5026 23.791C44.5026 24.0169 44.5199 24.208 44.572 24.3818C44.624 24.5556 44.6934 24.6946 44.7975 24.8163C44.8843 24.9379 45.0057 25.0248 45.1445 25.077C45.2833 25.1291 45.4395 25.1639 45.613 25.1639C45.7518 25.1639 45.8732 25.1465 45.9947 25.1117C46.0988 25.077 46.2029 25.0422 46.2896 24.9901C46.3764 24.9553 46.4284 24.9032 46.4805 24.8684C46.5325 24.8337 46.5672 24.8163 46.6019 24.8163C46.6193 24.8163 46.6193 24.8163 46.6366 24.8163C46.654 24.8163 46.654 24.8337 46.654 24.851C46.654 24.8684 46.6713 24.8858 46.6713 24.9206C46.6713 24.9553 46.6713 24.9901 46.6713 25.0248C46.6713 25.0596 46.6713 25.077 46.6713 25.0943C46.6713 25.1117 46.6713 25.1291 46.654 25.1465C46.654 25.1639 46.6366 25.1812 46.6366 25.1986C46.6366 25.216 46.6193 25.2334 46.6019 25.2508C46.5846 25.2681 46.5499 25.3029 46.4805 25.3376C46.4111 25.3724 46.3417 25.4072 46.2549 25.4419C46.1682 25.4767 46.0814 25.5114 45.9947 25.5288C45.9079 25.5462 45.8212 25.5636 45.7344 25.5636L45.8385 25.7026ZM51.0782 23.6867C51.0782 23.9648 51.0435 24.2254 50.9741 24.4513C50.9047 24.6773 50.8006 24.8684 50.6618 25.0422C50.523 25.1986 50.3495 25.3203 50.124 25.4072C49.9158 25.494 49.6555 25.5288 49.3779 25.5288C49.1003 25.5288 48.8574 25.494 48.6492 25.4072C48.441 25.3203 48.2849 25.216 48.1461 25.0596C48.0073 24.9032 47.9205 24.7294 47.8511 24.5035C47.7817 24.2776 47.747 24.0169 47.747 23.7388C47.747 23.4608 47.7817 23.2001 47.8511 22.9742C47.9205 22.7483 48.0246 22.5571 48.1634 22.4007C48.3022 22.2443 48.4757 22.1226 48.7013 22.0358C48.9095 21.9489 49.1524 21.9141 49.4473 21.9141C49.7249 21.9141 49.9505 21.9489 50.1587 22.0358C50.3669 22.1053 50.523 22.2269 50.6618 22.3833C50.8006 22.5397 50.9047 22.7135 50.9568 22.9394C51.0435 23.148 51.0782 23.4086 51.0782 23.6867ZM50.5577 23.7215C50.5577 23.5303 50.5404 23.3391 50.5057 23.1653C50.471 22.9916 50.4016 22.8525 50.3148 22.7135C50.2281 22.5919 50.1066 22.4876 49.9678 22.4181C49.829 22.3486 49.6382 22.3138 49.43 22.3138C49.2218 22.3138 49.0309 22.3486 48.8921 22.4355C48.7533 22.505 48.6319 22.6092 48.5451 22.7483C48.4584 22.8699 48.389 23.0263 48.3543 23.2001C48.3196 23.3739 48.3022 23.5477 48.3022 23.7388C48.3022 23.9474 48.3196 24.1385 48.3543 24.3123C48.389 24.4861 48.4584 24.6425 48.5451 24.7642C48.6319 24.8858 48.7533 24.9901 48.8921 25.0596C49.0309 25.1291 49.2218 25.1639 49.43 25.1639C49.6382 25.1639 49.829 25.1291 49.9678 25.0422C50.1066 24.9727 50.2281 24.8684 50.3322 24.7294C50.4189 24.6078 50.4883 24.4513 50.523 24.2776C50.5404 24.0864 50.5577 23.9126 50.5577 23.7215ZM54.5308 24.5035C54.5308 24.6599 54.4961 24.8163 54.4267 24.9379C54.3573 25.0596 54.2706 25.1812 54.1665 25.2681C54.045 25.355 53.9236 25.4245 53.7674 25.4767C53.6113 25.5288 53.4551 25.5462 53.2643 25.5462C53.1428 25.5462 53.0214 25.5288 52.9173 25.5114C52.8132 25.494 52.7091 25.4593 52.6397 25.4419C52.5529 25.4072 52.4835 25.3898 52.4315 25.355C52.3794 25.3203 52.3274 25.3029 52.31 25.2681C52.2927 25.2507 52.2753 25.216 52.258 25.1812C52.2406 25.1465 52.2406 25.1117 52.2406 25.0422C52.2406 25.0075 52.2406 24.9727 52.2406 24.9379C52.2406 24.9206 52.258 24.8858 52.258 24.8684C52.258 24.851 52.2753 24.8337 52.2927 24.8337C52.31 24.8337 52.31 24.8163 52.3274 24.8163C52.3621 24.8163 52.3968 24.8337 52.4488 24.8684C52.5009 24.9032 52.5529 24.9379 52.6397 24.9727C52.7091 25.0075 52.8132 25.0422 52.9173 25.077C53.0214 25.1117 53.1428 25.1291 53.299 25.1291C53.4031 25.1291 53.5072 25.1117 53.5939 25.0943C53.6807 25.0596 53.7674 25.0248 53.8195 24.9727C53.8889 24.9206 53.9409 24.8684 53.9756 24.7815C54.0103 24.712 54.0277 24.6251 54.0277 24.5382C54.0277 24.434 54.0103 24.3471 53.9583 24.2776C53.9062 24.208 53.8542 24.1385 53.7674 24.0864C53.6807 24.0343 53.5939 23.9821 53.5072 23.9474C53.4031 23.8952 53.299 23.8605 53.1949 23.8083C53.0908 23.7562 52.9867 23.7041 52.8826 23.6519C52.7785 23.5998 52.6917 23.5303 52.6223 23.4608C52.5356 23.3913 52.4835 23.287 52.4315 23.2001C52.3794 23.0958 52.3621 22.9742 52.3621 22.8352C52.3621 22.6788 52.3968 22.5571 52.4488 22.4355C52.5009 22.3138 52.5876 22.2269 52.6917 22.14C52.7958 22.0705 52.9173 22.001 53.0561 21.9662C53.1949 21.9315 53.351 21.8967 53.5072 21.8967C53.5939 21.8967 53.6633 21.8967 53.7501 21.9141C53.8368 21.9315 53.9062 21.9489 53.993 21.9662C54.0624 21.9836 54.1318 22.0184 54.1838 22.0358C54.2359 22.0705 54.2706 22.0879 54.3053 22.1053C54.3226 22.1226 54.34 22.14 54.34 22.14C54.34 22.1574 54.3573 22.1574 54.3573 22.1748C54.3573 22.1922 54.3573 22.2095 54.3747 22.2269C54.3747 22.2443 54.3747 22.2791 54.3747 22.3138C54.3747 22.3486 54.3747 22.3833 54.3747 22.4007C54.3747 22.4181 54.3747 22.4528 54.3573 22.4702C54.3573 22.4876 54.34 22.505 54.34 22.505C54.3226 22.505 54.3226 22.5224 54.3053 22.5224C54.2879 22.5224 54.2532 22.505 54.2012 22.4876C54.1491 22.4702 54.0971 22.4355 54.0277 22.4007C53.9583 22.3659 53.8889 22.3486 53.8021 22.3138C53.7154 22.2791 53.6113 22.2791 53.5072 22.2791C53.4031 22.2791 53.3163 22.2964 53.2296 22.3138C53.1602 22.3486 53.0908 22.3833 53.0387 22.4181C52.9867 22.4702 52.952 22.505 52.9346 22.5745C52.9173 22.6266 52.8999 22.6961 52.8999 22.7656C52.8999 22.8699 52.9173 22.9394 52.9693 23.0263C53.0214 23.0958 53.0734 23.1653 53.1602 23.2175C53.2469 23.2696 53.3337 23.3218 53.4378 23.3739C53.5419 23.426 53.646 23.4608 53.7501 23.5129C53.8542 23.5651 53.9583 23.6172 54.0624 23.6693C54.1665 23.7215 54.2532 23.791 54.34 23.8605C54.4267 23.93 54.4788 24.0169 54.5308 24.1212C54.4961 24.2428 54.5308 24.3645 54.5308 24.5035ZM60.4992 22.1748C60.4992 22.2095 60.4992 22.2443 60.4992 22.2617C60.4992 22.2791 60.4819 22.3138 60.4819 22.3312C60.4645 22.3486 60.4645 22.3659 60.4472 22.3659C60.4298 22.3659 60.4298 22.3833 60.4125 22.3833H59.0592V23.5824H60.3431C60.3604 23.5824 60.3778 23.5824 60.3778 23.5998C60.3951 23.5998 60.3951 23.6172 60.4125 23.6346C60.4298 23.6519 60.4298 23.6693 60.4298 23.6867C60.4298 23.7041 60.4298 23.7388 60.4298 23.7736C60.4298 23.8083 60.4298 23.8431 60.4298 23.8605C60.4298 23.8779 60.4125 23.9126 60.4125 23.9126C60.3951 23.93 60.3951 23.9474 60.3778 23.9474C60.3604 23.9474 60.3604 23.9648 60.3431 23.9648H59.0592V25.4419C59.0592 25.4593 59.0592 25.4593 59.0418 25.4767C59.0418 25.494 59.0245 25.494 59.0071 25.5114C58.9898 25.5114 58.9551 25.5288 58.9377 25.5288C58.903 25.5288 58.8683 25.5288 58.8163 25.5288C58.7642 25.5288 58.7295 25.5288 58.6948 25.5288C58.6601 25.5288 58.6428 25.5114 58.6254 25.5114C58.6081 25.5114 58.5907 25.494 58.5907 25.4767C58.5907 25.4593 58.5734 25.4593 58.5734 25.4419V22.1748C58.5734 22.1053 58.5907 22.0531 58.6254 22.0184C58.6601 21.9836 58.7122 21.9836 58.7469 21.9836H60.4125C60.4298 21.9836 60.4472 21.9836 60.4472 22.001C60.4645 22.001 60.4645 22.0184 60.4819 22.0358C60.4992 22.0531 60.4992 22.0705 60.4992 22.1053C60.4992 22.1053 60.4992 22.14 60.4992 22.1748ZM62.4077 25.4245C62.4077 25.4419 62.4077 25.4593 62.3904 25.4593C62.3904 25.4767 62.373 25.4767 62.3557 25.4767C62.3383 25.4767 62.3036 25.494 62.2863 25.494C62.2516 25.494 62.2169 25.494 62.1648 25.494C62.1128 25.494 62.0781 25.494 62.0434 25.494C62.0087 25.494 61.9913 25.4767 61.974 25.4767C61.9566 25.4767 61.9393 25.4593 61.9393 25.4593C61.9393 25.4419 61.9219 25.4419 61.9219 25.4245V22.0358C61.9219 22.0184 61.9219 22.001 61.9393 22.001C61.9566 21.9836 61.9566 21.9836 61.974 21.9662C61.9913 21.9662 62.026 21.9489 62.0434 21.9489C62.0781 21.9489 62.1128 21.9489 62.1648 21.9489C62.2169 21.9489 62.2516 21.9489 62.2863 21.9489C62.321 21.9489 62.3383 21.9662 62.3557 21.9662C62.373 21.9662 62.3904 21.9836 62.3904 22.001C62.3904 22.0184 62.4077 22.0184 62.4077 22.0358V25.4245ZM66.884 25.3029C66.884 25.3376 66.884 25.3724 66.8666 25.3898C66.8493 25.4072 66.8319 25.4419 66.8146 25.4593C66.7972 25.4767 66.7625 25.494 66.7452 25.494C66.7105 25.494 66.6931 25.5114 66.6758 25.5114H66.5196C66.4676 25.5114 66.4155 25.5114 66.3808 25.494C66.3461 25.4767 66.3114 25.4593 66.2767 25.4419C66.242 25.4245 66.2073 25.3724 66.1726 25.3376C66.1379 25.2855 66.1032 25.2334 66.0685 25.1639L64.9408 23.1653C64.8887 23.0611 64.8193 22.9568 64.7673 22.8352C64.6979 22.7135 64.6458 22.6092 64.5938 22.505C64.5938 22.6266 64.5938 22.7656 64.6111 22.9047C64.6111 23.0437 64.6111 23.1827 64.6111 23.3044V25.4419C64.6111 25.4593 64.6111 25.4593 64.5938 25.4767C64.5765 25.494 64.5765 25.494 64.5591 25.5114C64.5418 25.5114 64.5071 25.5288 64.4897 25.5288C64.455 25.5288 64.4203 25.5288 64.3683 25.5288C64.3162 25.5288 64.2815 25.5288 64.2468 25.5288C64.2121 25.5288 64.1948 25.5114 64.1774 25.5114C64.1601 25.5114 64.1427 25.494 64.1427 25.4767C64.1427 25.4593 64.1254 25.4593 64.1254 25.4419V22.1922C64.1254 22.1226 64.1427 22.0705 64.1948 22.0358C64.2295 22.001 64.2815 21.9836 64.3335 21.9836H64.5765C64.6285 21.9836 64.6805 21.9836 64.7153 22.001C64.75 22.001 64.7847 22.0184 64.8194 22.0531C64.8541 22.0705 64.8714 22.1053 64.9061 22.14C64.9408 22.1748 64.9582 22.2269 64.9929 22.2791L65.8603 23.8257C65.9124 23.9126 65.9644 24.0169 66.0165 24.1038C66.0685 24.1907 66.1206 24.2776 66.1553 24.3645C66.2073 24.4513 66.242 24.5382 66.2941 24.6251C66.3461 24.712 66.3808 24.7989 66.4329 24.8858C66.4329 24.7468 66.4329 24.5904 66.4329 24.434C66.4329 24.2776 66.4329 24.1212 66.4329 23.9821V22.0705C66.4329 22.0531 66.4329 22.0531 66.4502 22.0358C66.4676 22.0184 66.4676 22.0184 66.4849 22.001C66.5023 22.001 66.537 21.9836 66.5543 21.9836C66.589 21.9836 66.6237 21.9836 66.6758 21.9836C66.7278 21.9836 66.7625 21.9836 66.7972 21.9836C66.8319 21.9836 66.8493 22.001 66.8666 22.001C66.884 22.001 66.9013 22.0184 66.9013 22.0358C66.9013 22.0531 66.9187 22.0531 66.9187 22.0705V25.3029H66.884ZM71.3082 25.3376C71.3256 25.3724 71.3256 25.4072 71.3256 25.4419C71.3256 25.4593 71.3256 25.4767 71.3082 25.494C71.2909 25.5114 71.2735 25.5114 71.2388 25.5114C71.2041 25.5114 71.1521 25.5114 71.1 25.5114C71.048 25.5114 70.9959 25.5114 70.9612 25.5114C70.9265 25.5114 70.8918 25.5114 70.8745 25.494C70.8571 25.494 70.8398 25.4767 70.8398 25.4767C70.8224 25.4593 70.8224 25.4593 70.8224 25.4419L70.5101 24.5904H68.966L68.6537 25.4419C68.6537 25.4593 68.6363 25.4767 68.6363 25.4767C68.619 25.494 68.619 25.494 68.6016 25.5114C68.5843 25.5114 68.5496 25.5288 68.5322 25.5288C68.4975 25.5288 68.4628 25.5288 68.3934 25.5288C68.3414 25.5288 68.2893 25.5288 68.2546 25.5288C68.2199 25.5288 68.2026 25.5114 68.1852 25.5114C68.1679 25.494 68.1679 25.4767 68.1679 25.4593C68.1679 25.4419 68.1852 25.4072 68.1852 25.355L69.4344 22.0705C69.4344 22.0531 69.4518 22.0358 69.4691 22.0184C69.4865 22.001 69.5038 22.001 69.5212 21.9836C69.5385 21.9836 69.5732 21.9662 69.6079 21.9662C69.6426 21.9662 69.6947 21.9662 69.7467 21.9662C69.8161 21.9662 69.8508 21.9662 69.9029 21.9662C69.9376 21.9662 69.9723 21.9662 70.007 21.9836C70.0243 21.9836 70.059 22.001 70.059 22.0184C70.0764 22.0358 70.0764 22.0531 70.0937 22.0705L71.3082 25.3376ZM69.712 22.4355L69.0701 24.1907H70.354L69.712 22.4355ZM75.4028 25.3029C75.4028 25.3376 75.4028 25.3724 75.3855 25.3898C75.3681 25.4072 75.3508 25.4419 75.3334 25.4593C75.3161 25.4767 75.2814 25.494 75.264 25.494C75.2293 25.494 75.212 25.5114 75.1946 25.5114H75.0385C74.9864 25.5114 74.9344 25.5114 74.8997 25.494C74.865 25.4767 74.8303 25.4593 74.7956 25.4419C74.7609 25.4245 74.7262 25.3724 74.6915 25.3376C74.6568 25.2855 74.6221 25.2334 74.5874 25.1639L73.4596 23.1653C73.4076 23.0611 73.3382 22.9568 73.2861 22.8352C73.2167 22.7135 73.1647 22.6092 73.1126 22.505C73.1126 22.6266 73.1126 22.7656 73.13 22.9047C73.13 23.0437 73.13 23.1827 73.13 23.3044V25.4419C73.13 25.4593 73.13 25.4593 73.1126 25.4767C73.0953 25.494 73.0953 25.494 73.0779 25.5114C73.0606 25.5114 73.0259 25.5288 73.0085 25.5288C72.9738 25.5288 72.9391 25.5288 72.8871 25.5288C72.835 25.5288 72.8003 25.5288 72.7656 25.5288C72.7309 25.5288 72.7136 25.5114 72.6962 25.5114C72.6789 25.5114 72.6615 25.494 72.6615 25.4767C72.6615 25.4593 72.6442 25.4593 72.6442 25.4419V22.1922C72.6442 22.1226 72.6615 22.0705 72.7136 22.0358C72.7483 22.001 72.8003 21.9836 72.8524 21.9836H73.0953C73.1473 21.9836 73.1994 21.9836 73.2341 22.001C73.2688 22.001 73.3035 22.0184 73.3382 22.0531C73.3729 22.0705 73.3902 22.1053 73.4249 22.14C73.4596 22.1748 73.477 22.2269 73.5117 22.2791L74.3792 23.8257C74.4312 23.9126 74.4833 24.0169 74.5353 24.1038C74.5874 24.1907 74.6394 24.2776 74.6741 24.3645C74.7262 24.4513 74.7609 24.5382 74.8129 24.6251C74.865 24.712 74.8997 24.7989 74.9517 24.8858C74.9517 24.7468 74.9517 24.5904 74.9517 24.434C74.9517 24.2776 74.9517 24.1212 74.9517 23.9821V22.0705C74.9517 22.0531 74.9517 22.0531 74.9691 22.0358C74.9691 22.0184 74.9864 22.0184 75.0038 22.001C75.0211 22.001 75.0558 21.9836 75.0732 21.9836C75.1079 21.9836 75.1426 21.9836 75.1946 21.9836C75.2467 21.9836 75.2814 21.9836 75.3161 21.9836C75.3508 21.9836 75.3681 22.001 75.3855 22.001C75.4028 22.001 75.4202 22.0184 75.4202 22.0358C75.4202 22.0531 75.4375 22.0531 75.4375 22.0705V25.3029H75.4028Z" fill="black"/>
<path d="M79.5496 24.9901C79.5496 25.0248 79.5496 25.0422 79.5496 25.0596C79.5496 25.077 79.5496 25.0943 79.5322 25.1117C79.5322 25.1291 79.5149 25.1465 79.5149 25.1639C79.5149 25.1812 79.4975 25.1986 79.4802 25.216C79.4628 25.2334 79.4281 25.2681 79.3587 25.3029C79.2893 25.3376 79.2199 25.3724 79.1332 25.4072C79.0464 25.4419 78.9423 25.4767 78.8209 25.494C78.6994 25.5114 78.578 25.5288 78.4392 25.5288C78.1963 25.5288 77.9881 25.494 77.7799 25.4072C77.589 25.3376 77.4155 25.216 77.2767 25.077C77.1379 24.9206 77.0339 24.7468 76.9645 24.5209C76.8951 24.2949 76.8604 24.0516 76.8604 23.7562C76.8604 23.4608 76.8951 23.2001 76.9818 22.9742C77.0686 22.7483 77.1727 22.5571 77.3115 22.3833C77.4503 22.2269 77.6237 22.1053 77.8319 22.0184C78.0401 21.9315 78.2483 21.8967 78.4912 21.8967C78.5953 21.8967 78.6994 21.9141 78.8035 21.9315C78.9076 21.9489 78.9944 21.9662 79.0811 22.001C79.1679 22.0358 79.2373 22.0705 79.3067 22.1053C79.3761 22.14 79.4281 22.1748 79.4455 22.1922C79.4802 22.2095 79.4802 22.2269 79.4975 22.2443C79.4975 22.2617 79.5149 22.2791 79.5149 22.2964C79.5149 22.3138 79.5322 22.3312 79.5322 22.3659C79.5322 22.3833 79.5322 22.4181 79.5322 22.4528C79.5322 22.4876 79.5322 22.5223 79.5322 22.5397C79.5322 22.5571 79.5149 22.5919 79.5149 22.6092C79.5149 22.6266 79.4975 22.644 79.4802 22.644C79.4628 22.644 79.4628 22.6614 79.4455 22.6614C79.4108 22.6614 79.3761 22.644 79.324 22.6092C79.272 22.5745 79.2199 22.5397 79.1332 22.4876C79.0638 22.4528 78.9597 22.4007 78.8556 22.3659C78.7515 22.3312 78.6127 22.3138 78.4565 22.3138C78.283 22.3138 78.1442 22.3486 78.0054 22.4007C77.8666 22.4702 77.7452 22.5571 77.6584 22.6788C77.5544 22.8004 77.4849 22.9568 77.4329 23.1306C77.3808 23.3044 77.3461 23.5129 77.3461 23.7388C77.3461 23.9648 77.3635 24.1559 77.4156 24.3297C77.4676 24.5035 77.537 24.6425 77.6411 24.7642C77.7278 24.8858 77.8493 24.9727 77.9881 25.0248C78.1269 25.077 78.283 25.1117 78.4565 25.1117C78.6127 25.1117 78.7341 25.0943 78.8382 25.0596C78.9423 25.0248 79.0464 24.9901 79.1158 24.9379C79.2026 24.9032 79.2546 24.851 79.3067 24.8163C79.3587 24.7815 79.3934 24.7642 79.4281 24.7642C79.4455 24.7642 79.4455 24.7642 79.4628 24.7642C79.4802 24.7642 79.4802 24.7815 79.4802 24.7989C79.4802 24.8163 79.4975 24.8337 79.4975 24.8684C79.5322 24.9206 79.5496 24.9553 79.5496 24.9901ZM82.9328 25.3029C82.9328 25.3376 82.9328 25.3724 82.9328 25.3898C82.9328 25.4072 82.9155 25.4419 82.9155 25.4593C82.8981 25.4767 82.8981 25.494 82.8808 25.494C82.8634 25.494 82.8461 25.5114 82.8461 25.5114H81.059C81.007 25.5114 80.9723 25.494 80.9376 25.4767C80.9029 25.4419 80.8855 25.4072 80.8855 25.3203V22.1748C80.8855 22.1053 80.9029 22.0531 80.9376 22.0184C80.9723 21.9836 81.0243 21.9836 81.059 21.9836H82.8287C82.8461 21.9836 82.8634 21.9836 82.8634 22.001C82.8808 22.001 82.8808 22.0184 82.8981 22.0358C82.8981 22.0531 82.9155 22.0705 82.9155 22.1053C82.9155 22.1226 82.9155 22.1574 82.9155 22.1922C82.9155 22.2269 82.9155 22.2617 82.9155 22.2791C82.9155 22.2964 82.8981 22.3312 82.8981 22.3312C82.8981 22.3486 82.8808 22.3659 82.8634 22.3659C82.8461 22.3659 82.8287 22.3833 82.8287 22.3833H81.3713V23.4955H82.6205C82.6379 23.4955 82.6552 23.4955 82.6552 23.5129C82.6726 23.5129 82.6726 23.5303 82.6899 23.5477C82.7073 23.5651 82.7073 23.5824 82.7073 23.5998C82.7073 23.6346 82.7073 23.6519 82.7073 23.6867C82.7073 23.7215 82.7073 23.7562 82.7073 23.7736C82.7073 23.791 82.6899 23.8083 82.6899 23.8257C82.6726 23.8431 82.6726 23.8431 82.6552 23.8605C82.6379 23.8605 82.6205 23.8779 82.6205 23.8779H81.3713V25.1465H82.8461C82.8634 25.1465 82.8808 25.1465 82.8808 25.1639C82.8981 25.1639 82.8981 25.1812 82.9155 25.1986C82.9328 25.216 82.9328 25.2334 82.9328 25.2508C82.9328 25.2334 82.9328 25.2681 82.9328 25.3029ZM84.8934 25.4245C84.8934 25.4419 84.8934 25.4593 84.876 25.4593C84.876 25.4767 84.8587 25.4767 84.8413 25.4767C84.824 25.4767 84.7893 25.494 84.7719 25.494C84.7372 25.494 84.7025 25.494 84.6505 25.494C84.5984 25.494 84.5637 25.494 84.529 25.494C84.4943 25.494 84.477 25.4767 84.4596 25.4767C84.4423 25.4767 84.4249 25.4593 84.4249 25.4593C84.4249 25.4419 84.4076 25.4419 84.4076 25.4245V22.0358C84.4076 22.0184 84.4076 22.001 84.4249 22.001C84.4423 21.9836 84.4423 21.9836 84.4596 21.9662C84.477 21.9662 84.5117 21.9489 84.529 21.9489C84.5637 21.9489 84.5984 21.9489 84.6505 21.9489C84.7025 21.9489 84.7372 21.9489 84.7719 21.9489C84.8066 21.9489 84.824 21.9662 84.8413 21.9662C84.8587 21.9662 84.876 21.9836 84.876 22.001C84.876 22.0184 84.8934 22.0184 84.8934 22.0358V25.4245ZM89.0227 25.4245C89.0227 25.4419 89.0227 25.4593 89.0053 25.4593C89.0053 25.4767 88.988 25.4767 88.9706 25.494C88.9533 25.494 88.9186 25.5114 88.8839 25.5114C88.8492 25.5114 88.7971 25.5114 88.7451 25.5114C88.693 25.5114 88.6583 25.5114 88.6236 25.5114C88.5889 25.5114 88.5716 25.494 88.5542 25.494C88.5369 25.494 88.5195 25.4767 88.5022 25.4593C88.4848 25.4419 88.4848 25.4245 88.4675 25.4072L88.1205 24.573C88.0858 24.4861 88.0337 24.3992 87.999 24.3123C87.9643 24.2254 87.9123 24.1733 87.8429 24.1038C87.7908 24.0516 87.7214 23.9995 87.6347 23.9648C87.5479 23.93 87.4612 23.9126 87.3397 23.9126H87.0101V25.4245C87.0101 25.4419 87.0101 25.4593 86.9927 25.4593C86.9754 25.4767 86.9754 25.4767 86.958 25.4767C86.9407 25.4767 86.9233 25.494 86.8886 25.494C86.8539 25.494 86.8192 25.494 86.7672 25.494C86.7151 25.494 86.6804 25.494 86.6457 25.494C86.611 25.494 86.5937 25.4767 86.5763 25.4767C86.559 25.4767 86.5416 25.4593 86.5416 25.4593C86.5416 25.4419 86.5243 25.4419 86.5243 25.4245V22.1574C86.5243 22.0879 86.5416 22.0358 86.5763 22.001C86.611 21.9662 86.6631 21.9662 86.6978 21.9662H87.4959C87.5826 21.9662 87.6694 21.9662 87.7388 21.9662C87.8082 21.9662 87.8602 21.9836 87.9123 21.9836C88.0511 22.001 88.1899 22.0531 88.294 22.0879C88.3981 22.14 88.5022 22.2095 88.5716 22.2791C88.641 22.3659 88.7104 22.4528 88.7451 22.5397C88.7798 22.644 88.7971 22.7483 88.7971 22.8699C88.7971 22.9916 88.7798 23.0958 88.7451 23.1827C88.7104 23.2696 88.6583 23.3565 88.6063 23.426C88.5369 23.4955 88.4675 23.565 88.3807 23.6172C88.294 23.6693 88.1899 23.7215 88.0858 23.7562C88.1552 23.791 88.2072 23.8083 88.2593 23.8605C88.3113 23.8952 88.3634 23.9474 88.3981 23.9995C88.4328 24.0516 88.4848 24.1212 88.5195 24.1907C88.5542 24.2602 88.5889 24.3471 88.641 24.434L88.9706 25.216C89.0053 25.2855 89.0227 25.3203 89.0227 25.355C89.0227 25.3898 89.0227 25.4072 89.0227 25.4245ZM88.2766 22.9394C88.2766 22.8004 88.2419 22.6788 88.1725 22.5919C88.1031 22.505 87.999 22.4355 87.8429 22.3833C87.7908 22.3659 87.7388 22.3659 87.6867 22.3486C87.6347 22.3486 87.5479 22.3486 87.4438 22.3486H87.0274V23.5303H87.5132C87.652 23.5303 87.7561 23.5129 87.8429 23.4782C87.9296 23.4434 88.0164 23.4086 88.0858 23.3565C88.1552 23.3044 88.1899 23.2349 88.2246 23.1653C88.2593 23.1132 88.2766 23.0263 88.2766 22.9394ZM93.4642 23.6867C93.4642 23.9648 93.4295 24.2254 93.3601 24.4513C93.2907 24.6773 93.1866 24.8684 93.0478 25.0422C92.909 25.1986 92.7355 25.3203 92.51 25.4072C92.3018 25.494 92.0415 25.5288 91.764 25.5288C91.4864 25.5288 91.2435 25.494 91.0353 25.4072C90.8271 25.3203 90.6709 25.216 90.5321 25.0596C90.3933 24.9032 90.3065 24.7294 90.2371 24.5035C90.1677 24.2776 90.1331 24.0169 90.1331 23.7388C90.1331 23.4608 90.1677 23.2001 90.2371 22.9742C90.3065 22.7483 90.4107 22.5571 90.5495 22.4007C90.6883 22.2443 90.8617 22.1226 91.0873 22.0358C91.2955 21.9489 91.5384 21.9141 91.8333 21.9141C92.1109 21.9141 92.3365 21.9489 92.5447 22.0358C92.7529 22.1053 92.909 22.2269 93.0478 22.3833C93.1866 22.5397 93.2907 22.7135 93.3428 22.9394C93.4295 23.148 93.4642 23.4086 93.4642 23.6867ZM92.9264 23.7215C92.9264 23.5303 92.909 23.3391 92.8743 23.1653C92.8396 22.9916 92.7702 22.8525 92.6835 22.7135C92.5967 22.5919 92.4753 22.4876 92.3365 22.4181C92.1977 22.3486 92.0068 22.3138 91.7986 22.3138C91.5904 22.3138 91.3996 22.3486 91.2608 22.4355C91.122 22.505 91.0005 22.6092 90.9138 22.7483C90.8271 22.8699 90.7577 23.0263 90.723 23.2001C90.6883 23.3739 90.6709 23.5477 90.6709 23.7388C90.6709 23.9474 90.6883 24.1385 90.723 24.3123C90.7577 24.4861 90.8271 24.6425 90.9138 24.7642C91.0005 24.8858 91.122 24.9901 91.2608 25.0596C91.3996 25.1291 91.5904 25.1639 91.7986 25.1639C92.0068 25.1639 92.1977 25.1291 92.3365 25.0422C92.4753 24.9727 92.5967 24.8684 92.7008 24.7294C92.7876 24.6078 92.857 24.4513 92.8917 24.2776C92.909 24.0864 92.9264 23.9126 92.9264 23.7215ZM96.8995 24.5035C96.8995 24.6599 96.8648 24.8163 96.7954 24.9379C96.726 25.0596 96.6393 25.1812 96.5352 25.2681C96.4137 25.355 96.2923 25.4245 96.1361 25.4767C95.98 25.5288 95.8238 25.5462 95.633 25.5462C95.5115 25.5462 95.3901 25.5288 95.286 25.5114C95.1819 25.494 95.0778 25.4593 95.0084 25.4419C94.9216 25.4072 94.8522 25.3898 94.8002 25.355C94.7481 25.3203 94.6961 25.3029 94.6787 25.2681C94.6614 25.2507 94.644 25.216 94.6267 25.1812C94.6093 25.1465 94.6093 25.1117 94.6093 25.0422C94.6093 25.0075 94.6093 24.9727 94.6093 24.9379C94.6093 24.9206 94.6267 24.8858 94.6267 24.8684C94.6267 24.851 94.644 24.8337 94.6614 24.8337C94.6787 24.8337 94.6787 24.8163 94.6961 24.8163C94.7308 24.8163 94.7655 24.8337 94.8175 24.8684C94.8696 24.9032 94.9216 24.9379 95.0084 24.9727C95.0778 25.0075 95.1819 25.0422 95.286 25.077C95.3901 25.1117 95.5115 25.1291 95.6677 25.1291C95.7718 25.1291 95.8759 25.1117 95.9626 25.0943C96.0494 25.0596 96.1361 25.0248 96.1882 24.9727C96.2576 24.9206 96.3096 24.8684 96.3443 24.7815C96.379 24.712 96.3964 24.6251 96.3964 24.5382C96.3964 24.434 96.379 24.3471 96.327 24.2776C96.2749 24.208 96.2229 24.1385 96.1361 24.0864C96.0494 24.0343 95.9626 23.9821 95.8759 23.9474C95.7718 23.8952 95.6677 23.8605 95.5636 23.8083C95.4595 23.7562 95.3554 23.7041 95.2513 23.6519C95.1472 23.5998 95.0604 23.5303 94.991 23.4608C94.9043 23.3913 94.8522 23.287 94.8002 23.2001C94.7481 23.0958 94.7308 22.9742 94.7308 22.8352C94.7308 22.6788 94.7655 22.5571 94.8175 22.4355C94.8696 22.3138 94.9563 22.2269 95.0604 22.14C95.1645 22.0705 95.286 22.001 95.4248 21.9662C95.5636 21.9315 95.7197 21.8967 95.8759 21.8967C95.9626 21.8967 96.032 21.8967 96.1188 21.9141C96.2055 21.9315 96.2749 21.9489 96.3617 21.9662C96.4311 21.9836 96.5005 22.0184 96.5525 22.0358C96.6046 22.0705 96.6393 22.0879 96.674 22.1053C96.6913 22.1226 96.7087 22.14 96.7087 22.14C96.7087 22.1574 96.726 22.1574 96.726 22.1748C96.726 22.1922 96.726 22.2095 96.7434 22.2269C96.7434 22.2443 96.7434 22.2791 96.7434 22.3138C96.7434 22.3486 96.7434 22.3833 96.7434 22.4007C96.7434 22.4181 96.7434 22.4528 96.726 22.4702C96.726 22.4876 96.7087 22.505 96.7087 22.505C96.6913 22.505 96.6913 22.5224 96.674 22.5224C96.6566 22.5224 96.6219 22.505 96.5699 22.4876C96.5178 22.4702 96.4658 22.4355 96.3964 22.4007C96.327 22.3659 96.2576 22.3486 96.1708 22.3138C96.0841 22.2791 95.98 22.2791 95.8759 22.2791C95.7718 22.2791 95.685 22.2964 95.5983 22.3138C95.5289 22.3486 95.4595 22.3833 95.4074 22.4181C95.3554 22.4702 95.3207 22.505 95.3033 22.5745C95.286 22.6266 95.2686 22.6961 95.2686 22.7656C95.2686 22.8699 95.286 22.9394 95.338 23.0263C95.3901 23.0958 95.4421 23.1653 95.5289 23.2175C95.6156 23.2696 95.7024 23.3218 95.8065 23.3739C95.9106 23.426 96.0147 23.4608 96.1188 23.5129C96.2229 23.5651 96.327 23.6172 96.4311 23.6693C96.5352 23.7215 96.6219 23.791 96.7087 23.8605C96.7954 23.93 96.8475 24.0169 96.8995 24.1212C96.8822 24.2428 96.8995 24.3645 96.8995 24.5035Z" fill="black"/>
<path d="M110.138 24.2254L118.986 26.1023L108.715 30.6206L100.439 28.7264L110.138 24.2254Z" fill="#B4B4B3"/>
<path d="M107.257 28.7264H100.439V21.9489H114.076L107.257 28.7264Z" fill="url(#paint0_linear_207_698)"/>
<path d="M112.15 26.1544H118.986V32.932H105.332L112.15 26.1544Z" fill="#0FA1D9"/>
<path d="M110.571 29.9777C110.675 29.9603 110.832 29.9429 111.057 29.9429C111.283 29.9429 111.439 29.9777 111.543 30.0645C111.647 30.1514 111.716 30.2731 111.716 30.4295C111.716 30.5859 111.664 30.7249 111.578 30.8118C111.456 30.9335 111.265 30.9856 111.057 30.9856C111.005 30.9856 110.97 30.9856 110.936 30.9856V31.5591H110.589V29.9777H110.571ZM110.918 30.6902C110.953 30.6902 110.988 30.7075 111.04 30.7075C111.231 30.7075 111.352 30.6033 111.352 30.4469C111.352 30.3078 111.248 30.221 111.074 30.221C111.005 30.221 110.953 30.221 110.936 30.2383V30.6902H110.918Z" fill="white"/>
<path d="M112.601 31.5417L112.584 31.4201C112.515 31.507 112.393 31.5591 112.254 31.5591C112.029 31.5591 111.89 31.3853 111.89 31.2115C111.89 30.9161 112.15 30.7771 112.567 30.7771V30.7597C112.567 30.6902 112.532 30.6033 112.359 30.6033C112.237 30.6033 112.15 30.6728 112.081 30.7597L111.96 30.6033C112.012 30.5338 112.202 30.36 112.411 30.36C112.792 30.36 112.914 30.5859 112.914 30.864V31.2637C112.914 31.3679 112.914 31.4722 112.931 31.5417H112.601ZM112.567 31.003C112.376 31.003 112.237 31.0551 112.237 31.1768C112.237 31.2637 112.289 31.3158 112.376 31.3158C112.463 31.3158 112.532 31.2637 112.567 31.1768C112.567 31.1594 112.567 31.142 112.567 31.1073V31.003Z" fill="white"/>
<path d="M113.122 30.7597C113.122 30.5859 113.122 30.4816 113.104 30.3773H113.417L113.434 30.5859H113.451C113.504 30.4121 113.642 30.3426 113.764 30.3426C113.798 30.3426 113.816 30.3426 113.833 30.3426V30.6728C113.798 30.6728 113.781 30.6554 113.729 30.6554C113.59 30.6554 113.504 30.7249 113.486 30.8292C113.486 30.8466 113.486 30.8813 113.486 30.9161V31.4896H113.122V30.7597Z" fill="white"/>
<path d="M114.458 30.0645V30.3947H114.718V30.6554H114.458V31.0725C114.458 31.2115 114.492 31.281 114.597 31.281C114.649 31.281 114.683 31.281 114.701 31.2636V31.5417C114.649 31.5591 114.562 31.5765 114.475 31.5765C114.354 31.5765 114.267 31.5417 114.215 31.4722C114.145 31.4027 114.111 31.2984 114.111 31.1246V30.6554H113.955V30.3947H114.111V30.0645H114.458Z" fill="white"/>
<path d="M114.909 30.7597C114.909 30.6207 114.909 30.499 114.892 30.3947H115.204L115.221 30.5511C115.273 30.4816 115.377 30.36 115.568 30.36C115.811 30.36 115.985 30.5164 115.985 30.8466V31.5243H115.62V30.8813C115.62 30.7249 115.568 30.638 115.447 30.638C115.343 30.638 115.291 30.7076 115.273 30.7771C115.256 30.7944 115.256 30.8292 115.256 30.864V31.5243H114.892V30.7597H114.909Z" fill="white"/>
<path d="M116.557 31.0725C116.575 31.2289 116.713 31.2984 116.887 31.2984C117.008 31.2984 117.06 31.2463 117.164 31.2115L117.269 31.3853C117.164 31.4722 116.991 31.5591 116.835 31.5591C116.453 31.5591 116.228 31.3332 116.228 30.9682C116.228 30.6728 116.401 30.36 116.8 30.36C117.164 30.36 117.321 30.6554 117.321 30.9335C117.321 31.003 117.321 31.0551 117.303 31.0725H116.557ZM116.974 30.8292C116.974 30.7423 116.939 30.6033 116.765 30.6033C116.609 30.6033 116.557 30.7423 116.54 30.8292H116.974Z" fill="white"/>
<path d="M117.529 30.7597C117.529 30.5859 117.529 30.4816 117.511 30.3773H117.824L117.841 30.5859H117.858C117.91 30.4121 118.049 30.3426 118.171 30.3426C118.205 30.3426 118.223 30.3426 118.24 30.3426V30.6728C118.205 30.6728 118.188 30.6554 118.136 30.6554C117.997 30.6554 117.91 30.7249 117.893 30.8292C117.893 30.8466 117.893 30.8813 117.893 30.9161V31.4896H117.529V30.7597Z" fill="white"/>
<path d="M101.011 26.2413C101.289 26.3803 101.584 26.5541 102.07 26.5541C102.469 26.5541 102.66 26.4325 102.66 26.2239C102.66 26.0501 102.469 25.9285 101.966 25.7895C101.254 25.5983 100.664 25.216 100.664 24.5035C100.664 23.7388 101.341 23.1827 102.434 23.1827C103.007 23.1827 103.492 23.426 103.822 23.5477L103.354 24.3471C103.163 24.2602 102.902 24.1211 102.417 24.1211C102.07 24.1211 101.879 24.2254 101.879 24.4166C101.879 24.6425 102.139 24.712 102.694 24.8858C103.51 25.1465 103.891 25.5462 103.891 26.1718C103.891 26.8669 103.336 27.5273 102 27.5273C101.445 27.5273 100.873 27.2666 100.612 27.1276L101.011 26.2413Z" fill="white"/>
<path d="M107.17 23.3044C107.17 23.3044 107.969 23.3044 108.697 23.3044C109.322 23.3044 109.634 23.426 109.929 23.6345C110.224 23.8431 110.432 24.208 110.432 24.6599C110.432 25.0596 110.293 25.4419 110.016 25.6852C109.651 25.998 109.287 26.137 108.645 26.137C108.506 26.137 108.402 26.1196 108.333 26.1196V27.423H107.17V23.3044ZM108.333 25.2507C108.402 25.2681 108.489 25.2681 108.645 25.2681C109.096 25.2681 109.426 25.0596 109.426 24.6772C109.426 24.3644 109.2 24.1733 108.732 24.1733C108.541 24.1733 108.402 24.1906 108.35 24.1906V25.2507H108.333Z" fill="white"/>
<path d="M106.043 23.2522H104.828L104.204 25.0422L104.152 25.1986L103.371 27.4404H104.534L104.707 26.8148C104.915 26.9017 105.158 26.9364 105.418 26.9364C105.696 26.9364 105.939 26.8843 106.147 26.7974L106.338 27.4404H107.5L106.043 23.2522ZM105.089 25.5114L105.175 25.1986C105.228 25.0074 105.28 24.7641 105.332 24.5382C105.349 24.4861 105.349 24.4513 105.366 24.3992H105.384C105.401 24.434 105.418 24.4861 105.418 24.5382C105.488 24.7468 105.557 24.9901 105.609 25.1812L105.696 25.494L105.817 25.9285C105.679 25.9632 105.54 25.9806 105.384 25.9806C105.228 25.9806 105.089 25.9632 104.95 25.9285L105.089 25.5114Z" fill="white"/>
<path d="M104.204 32.8798V32.4975H104.065V32.4106H104.429V32.4975H104.29V32.8798H104.204Z" fill="#231F20"/>
<path d="M104.481 32.8798V32.4106H104.62L104.707 32.7234L104.794 32.4106H104.933V32.8798H104.846V32.5149L104.759 32.8798H104.672L104.586 32.5149V32.8798H104.481Z" fill="#231F20"/>
<defs>
<linearGradient id="paint0_linear_207_698" x1="107.256" y1="28.7336" x2="107.256" y2="21.9507" gradientUnits="userSpaceOnUse">
<stop stop-color="#2063AE"/>
<stop offset="1" stop-color="#24A3DC"/>
</linearGradient>
</defs>
</svg>
