<svg width="20" height="20" viewBox="0 0 20 20" fill="none" xmlns="http://www.w3.org/2000/svg">
<path fill-rule="evenodd" clip-rule="evenodd" d="M13.2916 12.0566H12.6412L12.4106 11.8343C13.2175 10.8957 13.7033 9.67719 13.7033 8.35163C13.7033 5.39588 11.3074 3 8.35163 3C5.39588 3 3 5.39588 3 8.35163C3 11.3074 5.39588 13.7033 8.35163 13.7033C9.67719 13.7033 10.8957 13.2175 11.8343 12.4106L12.0566 12.6412V13.2916L16.1732 17.4L17.4 16.1732L13.2916 12.0566ZM8.35163 12.0566C6.30154 12.0566 4.64666 10.4017 4.64666 8.35163C4.64666 6.30154 6.30154 4.64666 8.35163 4.64666C10.4017 4.64666 12.0566 6.30154 12.0566 8.35163C12.0566 10.4017 10.4017 12.0566 8.35163 12.0566Z" fill="#898989"/>
</svg>
